<?xml version="1.0" encoding="utf-8"?>
<svg version="1.1" xmlns="http://www.w3.org/2000/svg" xmlns:xlink="http://www.w3.org/1999/xlink"
	 viewBox="0 0 510.7 200.7">
<g>
	<path id="o-1" fill="#13110C" d="M140.5,0c-22.6,0-40.8,18.3-40.8,40.8v81.7c0,22.6,18.3,40.9,40.8,40.9c22.6,0,40.9-18.3,40.9-40.9V40.9
		C181.3,18.3,163,0,140.5,0z M160.4,122.6c0,11-8.9,19.9-19.9,19.9c-11,0-19.9-8.9-19.9-19.9V40.9c0-11,8.9-19.9,19.9-19.9
		c11,0,19.9,8.9,19.9,19.9c0,0.2,0,0.4,0,0.6v80.6C160.4,122.2,160.4,122.4,160.4,122.6z"/>
	<path id="o-2" fill="#13110C" d="M243.1,0c-22.6,0-40.8,18.3-40.8,40.8v81.7c0,22.6,18.3,40.9,40.8,40.9c22.6,0,40.9-18.3,40.9-40.9V40.9
		C284,18.3,265.7,0,243.1,0z M263,122.6c0,11-8.9,19.9-19.9,19.9s-19.9-8.9-19.9-19.9V40.9c0-11,8.9-19.9,19.9-19.9
		S263,29.9,263,40.9c0,0.2,0,0.4,0,0.6v80.6C263,122.2,263,122.4,263,122.6z"/>
	<polygon id="n" fill="#13110C" points="365.7,4 365.7,109.2 325.8,4 304.9,4 304.9,158.8 325.8,158.8 325.8,120.1 325.8,84.8 325.8,52.5
		365.7,158.8 386.6,158.8 386.6,4 	"/>
	<path id="s" fill="#13110C" d="M60.8,51.6h20.9V40.9c0-22.6-18.3-40.8-40.9-40.8S0,18.4,0,40.9v5.6c0,13.1,6.7,24.7,16.9,31.4l0,0
		l35.8,24.7c4.7,3.5,7.8,9,8,15.2l0,0v4.2c0,0.2,0,0.4,0,0.6c0,11-8.9,19.9-19.9,19.9s-19.9-8.9-19.9-19.9v-11.4H0.1v11.4
		c0,22.6,18.3,40.9,40.8,40.9c22.6,0,40.9-18.3,40.9-40.9v-5.4l0,0c0-0.1,0-0.3,0-0.4c0-12.9-6.5-24.3-16.4-31.1l0.1-0.1l-35-23.9
		l0,0c-5.7-3.5-9.5-9.8-9.5-17c0-0.2,0-0.3,0-0.5h-0.1v-3.3c0-11,8.9-19.9,19.9-19.9s19.9,8.9,19.9,19.9c0,0.2,0,0.4,0,0.6
		L60.8,51.6L60.8,51.6z"/>
	<rect id="underscore" fill="#13110C" width="100" height="25" x="80.3%" y="90%"/>
</g>
</svg>
