<?xml version="1.0" encoding="utf-8"?>
<!DOCTYPE svg PUBLIC "-//W3C//DTD SVG 1.1//EN" "http://www.w3.org/Graphics/SVG/1.1/DTD/svg11.dtd">
<svg version="1.1" xmlns="http://www.w3.org/2000/svg" xmlns:xlink="http://www.w3.org/1999/xlink" x="0px" y="0px" viewBox="0 0 25.5 25.5" enable-background="new 0 0 25.5 25.5" xml:space="preserve">
    <path fill="#000000" d="M21.5,24.8L0.7,4c-0.9-0.9-0.9-2.4,0-3.3l0,0c0.9-0.9,2.4-0.9,3.3,0l20.8,20.8c0.9,0.9,0.9,2.4,0,3.3l0,0 C23.9,25.7,22.4,25.7,21.5,24.8z"/>
    <path fill="#000000" d="M0.7,21.5L21.5,0.7c0.9-0.9,2.4-0.9,3.3,0l0,0c0.9,0.9,0.9,2.4,0,3.3L4,24.8c-0.9,0.9-2.4,0.9-3.3,0l0,0 C-0.2,23.9-0.2,22.4,0.7,21.5z"/>
    <path fill="#000000" d="M21.5,24.8L0.7,4c-0.9-0.9-0.9-2.4,0-3.3l0,0c0.9-0.9,2.4-0.9,3.3,0l20.8,20.8c0.9,0.9,0.9,2.4,0,3.3l0,0 C23.9,25.7,22.4,25.7,21.5,24.8z"/>
    <path fill="#000000" d="M0.7,21.5L21.5,0.7c0.9-0.9,2.4-0.9,3.3,0l0,0c0.9,0.9,0.9,2.4,0,3.3L4,24.8c-0.9,0.9-2.4,0.9-3.3,0l0,0 C-0.2,23.9-0.2,22.4,0.7,21.5z"/>
</svg>
